<svg height="512pt" viewBox="0 -43 512 511" width="512pt" xmlns="http://www.w3.org/2000/svg"><path d="m323 78.5c11.046875 0 20 8.953125 20 20s-8.953125 20-20 20-20-8.953125-20-20 8.953125-20 20-20zm35 70c0 11.046875 8.953125 20 20 20s20-8.953125 20-20-8.953125-20-20-20-20 8.953125-20 20zm134 163.726562v33.273438c0 44.109375-35.886719 80-80 80h-311c-44.113281 0-80-35.890625-80-80v-32.410156c-12.839844-10.972656-21-27.238282-21-45.371094 0-18.230469 8.179688-34.570312 21.046875-45.582031.488281-31.820313 5.328125-61.046875 14.417969-86.9375 10.066406-28.683594 25.355468-53.382813 45.449218-73.410157 40.800782-40.671874 99.640626-61.289062 174.882813-61.289062.441406 0 .878906 0 1.320313.003906 86.328124.273438 153.226562 29.757813 193.460937 85.257813 6.480469 8.941406 4.488281 21.449219-4.457031 27.933593-8.941406 6.480469-21.445313 4.488282-27.929688-4.457031-32.429687-44.734375-88.171875-68.503906-161.199218-68.734375-.398438 0-.800782-.003906-1.195313-.003906-64.28125 0-113.609375 16.691406-146.644531 49.621094-28.265625 28.175781-44.207032 67.597656-47.507813 117.378906h389.628907c-.546876-7.441406-1.402344-14.707031-2.566407-21.734375-1.800781-10.898437 5.570313-21.195313 16.46875-22.996094 10.890625-1.8125 21.195313 5.570313 22.996094 16.46875 2.308594 13.96875 3.570313 28.675781 3.78125 43.769531 12.292969 10.992188 20.046875 26.960938 20.046875 44.710938 0 17.664062-7.734375 33.554688-20 44.507812zm-40 15.273438h-17c-11.046875 0-20-8.953125-20-20s8.953125-20 20-20h17c11.027344 0 20-8.875 20-19.78125 0-11.03125-8.972656-20-20-20-.949219 0-1.878906-.089844-2.796875-.21875h-69.703125c-3.515625 1.117188-9.5 8.136719-9.5 28.082031 0 4.605469 2.511719 11.394531 4.730469 17.382813 2.5 6.757812 4.871093 13.167968 5.21875 19.859375.003906.058593.011719.117187.011719.175781.023437.496094.039062.996094.039062 1.5 0 16.566406-13.433594 30-30 30s-30-13.433594-30-30c0-.503906.015625-1.003906.039062-1.5 0-.058594.007813-.117188.011719-.175781.347657-6.691407 2.71875-13.101563 5.21875-19.859375 2.21875-5.988282 4.730469-12.777344 4.730469-17.382813 0-11.507812-2.957031-19.613281-8.789062-24.097656-3.816407-2.929687-8.007813-3.78125-9.292969-3.984375h-11.933594c-1.398437.199219-6.671875 1.179688-11.550781 5.03125-7.585938 5.988281-11.433594 16.742188-11.433594 31.96875 0 9.378906 2.570312 17.585938 5.058594 25.523438 2.429687 7.75 4.941406 15.765624 4.941406 24.476562 0 .226562-.027344.441406-.035156.667969.019531.441406.035156.882812.035156 1.332031 0 16.566406-13.433594 30-30 30s-30-13.433594-30-30c0-.449219.015625-.890625.035156-1.332031-.007812-.226563-.035156-.441407-.035156-.667969 0-8.710938 2.511719-16.726562 4.941406-24.476562 2.488282-7.9375 5.058594-16.144532 5.058594-25.523438 0-16.1875-3.792969-27.769531-10.96875-33.488281-3.101562-2.476563-6.328125-3.355469-6.980469-3.511719h-156.253906c-.917969.128906-1.847656.21875-2.796875.21875-11.027344 0-20 8.96875-20 20 0 10.90625 8.972656 19.78125 20 19.78125h114c11.046875 0 20 8.953125 20 20s-8.953125 20-20 20h-113v18c0 22.054688 17.945312 40 40 40h311c22.054688 0 40-17.945312 40-40zm0 0"/></svg>