<svg id="Capa_1" enable-background="new 0 0 512 512" height="512" viewBox="0 0 512 512" width="512" xmlns="http://www.w3.org/2000/svg"><path d="m470.011 0h-58.877c-5.818 0-11.112 3.365-13.582 8.633l-50.8 108.367h-147.494l56.463-56.497c5.856-5.86 5.851-15.368-.015-21.222-52.248-52.136-137.257-52.231-189.501.012-52.505 52.504-52.072 137.541 0 189.613 5.854 5.855 15.359 5.857 21.216-.003l62.587-62.624s8.589 74.879 38 332.423c.865 7.576 7.278 13.298 14.903 13.298h184.7.1c7.626 0 14.038-5.722 14.903-13.298 3.147-27.559 38.072-333.461 41.699-364.987 1.023-8.894-5.938-16.714-14.902-16.714h-49.527l40.785-87h49.342c8.284 0 15-6.716 15-15s-6.716-15.001-15-15.001zm-392.435 71.891 47.153 47.209h-66.65c2.421-16.76 8.915-33.035 19.497-47.209zm-.005 124.43c-10.586-14.176-17.078-30.458-19.5-47.221h66.692zm68.341-98.464-47.126-47.182c14.145-10.556 30.389-17.048 47.126-19.467zm30-66.635c16.755 2.417 33.038 8.892 47.215 19.455l-47.215 47.244zm70 450.778h-29.616l-22.882-200.369c26.743-2.949 52.497 17.956 52.497 47.269v153.1zm128.321 0h-29.622v-153.1c0-29.374 25.75-50.266 52.592-47.27zm26.365-230.13c-46.085-5.033-85.986 31.138-85.986 77.03v153.1h-38.7v-153.1c0-46.022-40.115-82.014-85.91-77.028l-4.265-37.072h219.073zm11.989-104.87-4.349 37.8h-225.933l-4.293-37.8z"/></svg>